<svg xmlns="http://www.w3.org/2000/svg" width="171.154" height="85.336" viewBox="0 0 171.154 85.336">
  <defs>
    <style>
      .cls-1 {
        fill: #575756;
      }

      .cls-2 {
        fill: #6cbe99;
      }

      .cls-3 {
        fill: #fff;
      }
    </style>
  </defs>
  <g id="Logo" transform="translate(0)">
    <g id="Group_41" data-name="Group 41" transform="translate(0.655)">
      <g id="Group_39" data-name="Group 39">
        <g id="Group_36" data-name="Group 36" transform="translate(118.725 20.799)">
          <rect id="Rectangle_14" data-name="Rectangle 14" class="cls-1" width="3.451" height="39.234"/>
        </g>
        <path id="Path_65" data-name="Path 65" class="cls-1" d="M133.962,33.66A21.342,21.342,0,0,0,116.071,43.4V35.369H112.62v39.25h3.451V55a17.892,17.892,0,1,1,35.783,0V74.619H155.3V55A21.36,21.36,0,0,0,133.962,33.66Z" transform="translate(14.795 -14.586)"/>
        <path id="Path_66" data-name="Path 66" class="cls-1" d="M54.2,33.66A21.342,21.342,0,0,0,36.311,43.4V35.369H32.86v39.25h3.451V55A17.9,17.9,0,0,1,54.2,37.111a17.6,17.6,0,0,1,7.62,1.709l1.47-3.115A20.953,20.953,0,0,0,54.2,33.66Z" transform="translate(-32.86 -14.586)"/>
        <g id="Group_37" data-name="Group 37" transform="translate(72.989)">
          <path id="Path_67" data-name="Path 67" class="cls-1" d="M99.892,83.479A21.36,21.36,0,0,1,78.55,62.136V21.72H82V62.136A17.887,17.887,0,1,0,86.473,50.3l-2.588-2.284A21.344,21.344,0,1,1,99.892,83.479Z" transform="translate(-78.55 -21.72)"/>
        </g>
        <g id="Group_38" data-name="Group 38" transform="translate(28.339 19.074)">
          <path id="Path_68" data-name="Path 68" class="cls-1" d="M71.942,76.345A21.342,21.342,0,1,1,93.285,55,21.36,21.36,0,0,1,71.942,76.345Zm0-39.234A17.892,17.892,0,1,0,89.834,55,17.9,17.9,0,0,0,71.942,37.111Z" transform="translate(-50.6 -33.66)"/>
        </g>
      </g>
      <g id="Group_40" data-name="Group 40" transform="translate(34.617 25.48)">
        <path id="Path_69" data-name="Path 69" class="cls-2" d="M83.109,46.68,69.4,60.386,58.939,49.923l2.508-2.508L69.4,55.37,81.256,43.517a14.89,14.89,0,1,0,3.083,9.058A15.081,15.081,0,0,0,83.109,46.68Z" transform="translate(-54.53 -37.67)"/>
        <path id="Path_70" data-name="Path 70" class="cls-3" d="M59.8,45.222,57.29,47.73,67.753,58.193,81.46,44.487a14.488,14.488,0,0,0-1.869-3.147L67.738,53.193Z" transform="translate(-52.881 -35.477)"/>
      </g>
    </g>
    <g id="Group_42" data-name="Group 42" transform="translate(0 67.045)">
      <path id="Path_71" data-name="Path 71" class="cls-2" d="M44.942,70.494a6.335,6.335,0,0,0-5.431-2.764,7.149,7.149,0,0,0,0,14.3,6.516,6.516,0,0,0,5.431-2.78V81.8h1.629v-13.9H44.942Zm-5.431-1.182a5.318,5.318,0,0,1,5.543,5.543,5.722,5.722,0,0,1-1.39,3.818,5.55,5.55,0,1,1-4.153-9.361Z" transform="translate(-32.45 -63.768)"/>
      <path id="Path_72" data-name="Path 72" class="cls-2" d="M53.7,74l-.479-.08c-1.693-.3-3.8-.671-3.85-2.316a1.709,1.709,0,0,1,.511-1.294,4.761,4.761,0,0,1,3.355-1.054h.112a5.741,5.741,0,0,1,4.153,1.39l.1.1,1.022-1.086-.112-.1a7.272,7.272,0,0,0-5.16-1.853h-.1a6.359,6.359,0,0,0-4.489,1.5,3.238,3.238,0,0,0-.958,2.444c.032,2.907,2.891,3.387,5.415,3.8,2.141.351,4.361.7,4.313,2.556-.08,2.22-2.891,2.46-4.106,2.46a5.877,5.877,0,0,1-4.872-2.252l-.112-.16-1.2,1.07.064.112a7.081,7.081,0,0,0,6.07,2.8c1.326,0,5.639-.288,5.735-3.946C59.263,74.931,56.036,74.387,53.7,74Z" transform="translate(-23.607 -63.78)"/>
      <path id="Path_73" data-name="Path 73" class="cls-2" d="M66.662,74l-.479-.08c-1.693-.3-3.8-.671-3.85-2.316a1.709,1.709,0,0,1,.511-1.294A4.761,4.761,0,0,1,66.2,69.26h.112a5.741,5.741,0,0,1,4.153,1.39l.112.1L71.6,69.659l-.1-.1a7.272,7.272,0,0,0-5.16-1.853h-.1a6.359,6.359,0,0,0-4.489,1.5,3.238,3.238,0,0,0-.958,2.444c.032,2.907,2.891,3.387,5.415,3.8,2.157.351,4.377.7,4.313,2.556-.08,2.22-2.891,2.46-4.105,2.46a5.855,5.855,0,0,1-4.872-2.252l-.1-.128-1.214,1.07.064.112a7.081,7.081,0,0,0,6.07,2.8c1.326,0,5.639-.288,5.735-3.946C72.221,74.931,69.01,74.387,66.662,74Z" transform="translate(-15.846 -63.78)"/>
      <rect id="Rectangle_15" data-name="Rectangle 15" class="cls-2" width="1.645" height="13.962" transform="translate(65.928 4.074)"/>
      <path id="Path_74" data-name="Path 74" class="cls-2" d="M87.268,74l-.479-.08c-1.693-.3-3.8-.671-3.85-2.316a1.709,1.709,0,0,1,.511-1.294A4.761,4.761,0,0,1,86.8,69.26h.112a5.741,5.741,0,0,1,4.153,1.39l.1.1,1.022-1.086-.112-.1a7.272,7.272,0,0,0-5.16-1.853h-.1a6.359,6.359,0,0,0-4.489,1.5,3.238,3.238,0,0,0-.958,2.444c.032,2.907,2.891,3.387,5.415,3.8,2.141.351,4.361.7,4.313,2.556-.08,2.22-2.891,2.46-4.105,2.46a5.877,5.877,0,0,1-4.872-2.252l-.1-.128-1.2,1.07.064.112a7.081,7.081,0,0,0,6.07,2.8c1.326,0,5.639-.288,5.735-3.946C92.827,74.931,89.616,74.387,87.268,74Z" transform="translate(-3.544 -63.78)"/>
      <path id="Path_75" data-name="Path 75" class="cls-2" d="M102.528,81.4a4.888,4.888,0,0,1-2.029.543c-1.965,0-2.364-1.15-2.364-3V70.793h4.633V69.372H98.135V65.25l-1.613.16v3.962H93.63v1.422h2.891V78.94c0,3.083,1.262,4.521,3.978,4.521a6.14,6.14,0,0,0,2.62-.7l.128-.064-.575-1.374Z" transform="translate(4.104 -65.25)"/>
      <path id="Path_76" data-name="Path 76" class="cls-2" d="M117.5,70.494a6.335,6.335,0,0,0-5.431-2.764,7.149,7.149,0,0,0,0,14.3,6.516,6.516,0,0,0,5.431-2.78V81.8h1.629v-13.9H117.5Zm-5.431-1.182a5.318,5.318,0,0,1,5.543,5.543,5.722,5.722,0,0,1-1.39,3.818,5.55,5.55,0,1,1-4.153-9.361Z" transform="translate(10.903 -63.768)"/>
      <path id="Path_77" data-name="Path 77" class="cls-2" d="M126.65,67.68a5.629,5.629,0,0,0-4.7,2.316V67.936H120.34v13.9h1.629V74.1a4.613,4.613,0,0,1,4.633-4.824h.064c2.939,0,4.633,1.661,4.633,4.569v7.971h1.629v-8C132.944,70.092,130.468,67.68,126.65,67.68Z" transform="translate(20.062 -63.798)"/>
      <path id="Path_78" data-name="Path 78" class="cls-2" d="M142.6,81.337l-.128.064a4.888,4.888,0,0,1-2.029.543c-1.965,0-2.364-1.15-2.364-3V70.793h4.633V69.372h-4.633V65.25l-1.613.16v3.962H133.57v1.422h2.891V78.94c0,3.083,1.262,4.521,3.978,4.521a6.2,6.2,0,0,0,2.62-.7l.128-.064Z" transform="translate(27.967 -65.25)"/>
    </g>
  </g>
</svg>
